<mxfile host="app.diagrams.net" agent="Mozilla/5.0 (Windows NT 10.0; Win64; x64) AppleWebKit/537.36 (KHTML, like Gecko) Chrome/137.0.0.0 Safari/537.36" version="27.1.6">
  <diagram name="Seite-1" id="J0gxNP-jMJlzQNzbxBSd">
    <mxGraphModel dx="1603" dy="935" grid="1" gridSize="10" guides="1" tooltips="1" connect="1" arrows="0" fold="1" page="1" pageScale="1" pageWidth="827" pageHeight="1169" math="0" shadow="0">
      <root>
        <mxCell id="0" />
        <mxCell id="1" parent="0" />
        <mxCell id="t8tQ9nu9heZPy6y7ipzj-1" value="" style="whiteSpace=wrap;html=1;aspect=fixed;" vertex="1" parent="1">
          <mxGeometry x="130" y="180" width="600" height="600" as="geometry" />
        </mxCell>
        <mxCell id="t8tQ9nu9heZPy6y7ipzj-34" style="edgeStyle=orthogonalEdgeStyle;rounded=0;orthogonalLoop=1;jettySize=auto;html=1;entryX=0;entryY=0.5;entryDx=0;entryDy=0;" edge="1" parent="1" source="t8tQ9nu9heZPy6y7ipzj-2" target="t8tQ9nu9heZPy6y7ipzj-24">
          <mxGeometry relative="1" as="geometry" />
        </mxCell>
        <mxCell id="t8tQ9nu9heZPy6y7ipzj-35" style="edgeStyle=orthogonalEdgeStyle;rounded=0;orthogonalLoop=1;jettySize=auto;html=1;entryX=0;entryY=0.5;entryDx=0;entryDy=0;" edge="1" parent="1" source="t8tQ9nu9heZPy6y7ipzj-2" target="t8tQ9nu9heZPy6y7ipzj-23">
          <mxGeometry relative="1" as="geometry" />
        </mxCell>
        <mxCell id="t8tQ9nu9heZPy6y7ipzj-36" style="edgeStyle=orthogonalEdgeStyle;rounded=0;orthogonalLoop=1;jettySize=auto;html=1;entryX=0;entryY=0.5;entryDx=0;entryDy=0;" edge="1" parent="1" source="t8tQ9nu9heZPy6y7ipzj-2" target="t8tQ9nu9heZPy6y7ipzj-22">
          <mxGeometry relative="1" as="geometry" />
        </mxCell>
        <mxCell id="t8tQ9nu9heZPy6y7ipzj-60" style="edgeStyle=orthogonalEdgeStyle;rounded=0;orthogonalLoop=1;jettySize=auto;html=1;exitX=0.5;exitY=0.5;exitDx=0;exitDy=0;exitPerimeter=0;entryX=0;entryY=0.5;entryDx=0;entryDy=0;" edge="1" parent="1" source="t8tQ9nu9heZPy6y7ipzj-2" target="t8tQ9nu9heZPy6y7ipzj-59">
          <mxGeometry relative="1" as="geometry" />
        </mxCell>
        <mxCell id="t8tQ9nu9heZPy6y7ipzj-2" value="Kunde" style="shape=umlActor;verticalLabelPosition=bottom;verticalAlign=top;html=1;outlineConnect=0;" vertex="1" parent="1">
          <mxGeometry x="60" y="410" width="30" height="60" as="geometry" />
        </mxCell>
        <mxCell id="t8tQ9nu9heZPy6y7ipzj-6" style="edgeStyle=orthogonalEdgeStyle;rounded=0;orthogonalLoop=1;jettySize=auto;html=1;entryX=1;entryY=0.5;entryDx=0;entryDy=0;" edge="1" parent="1" source="t8tQ9nu9heZPy6y7ipzj-3" target="t8tQ9nu9heZPy6y7ipzj-5">
          <mxGeometry relative="1" as="geometry" />
        </mxCell>
        <mxCell id="t8tQ9nu9heZPy6y7ipzj-9" style="edgeStyle=orthogonalEdgeStyle;rounded=0;orthogonalLoop=1;jettySize=auto;html=1;" edge="1" parent="1" source="t8tQ9nu9heZPy6y7ipzj-3" target="t8tQ9nu9heZPy6y7ipzj-7">
          <mxGeometry relative="1" as="geometry" />
        </mxCell>
        <mxCell id="t8tQ9nu9heZPy6y7ipzj-31" style="edgeStyle=orthogonalEdgeStyle;rounded=0;orthogonalLoop=1;jettySize=auto;html=1;entryX=0.5;entryY=0;entryDx=0;entryDy=0;" edge="1" parent="1" source="t8tQ9nu9heZPy6y7ipzj-3" target="t8tQ9nu9heZPy6y7ipzj-25">
          <mxGeometry relative="1" as="geometry" />
        </mxCell>
        <mxCell id="t8tQ9nu9heZPy6y7ipzj-3" value="Administrator" style="shape=umlActor;verticalLabelPosition=bottom;verticalAlign=top;html=1;outlineConnect=0;" vertex="1" parent="1">
          <mxGeometry x="760" y="230" width="30" height="60" as="geometry" />
        </mxCell>
        <mxCell id="t8tQ9nu9heZPy6y7ipzj-15" style="edgeStyle=orthogonalEdgeStyle;rounded=0;orthogonalLoop=1;jettySize=auto;html=1;entryX=1;entryY=0.5;entryDx=0;entryDy=0;" edge="1" parent="1" source="t8tQ9nu9heZPy6y7ipzj-4" target="t8tQ9nu9heZPy6y7ipzj-14">
          <mxGeometry relative="1" as="geometry" />
        </mxCell>
        <mxCell id="t8tQ9nu9heZPy6y7ipzj-17" style="edgeStyle=orthogonalEdgeStyle;rounded=0;orthogonalLoop=1;jettySize=auto;html=1;entryX=1;entryY=0.5;entryDx=0;entryDy=0;" edge="1" parent="1" source="t8tQ9nu9heZPy6y7ipzj-4" target="t8tQ9nu9heZPy6y7ipzj-16">
          <mxGeometry relative="1" as="geometry" />
        </mxCell>
        <mxCell id="t8tQ9nu9heZPy6y7ipzj-21" style="edgeStyle=orthogonalEdgeStyle;rounded=0;orthogonalLoop=1;jettySize=auto;html=1;" edge="1" parent="1" source="t8tQ9nu9heZPy6y7ipzj-4" target="t8tQ9nu9heZPy6y7ipzj-20">
          <mxGeometry relative="1" as="geometry" />
        </mxCell>
        <mxCell id="t8tQ9nu9heZPy6y7ipzj-27" style="edgeStyle=orthogonalEdgeStyle;rounded=0;orthogonalLoop=1;jettySize=auto;html=1;entryX=1;entryY=0.5;entryDx=0;entryDy=0;" edge="1" parent="1" source="t8tQ9nu9heZPy6y7ipzj-4" target="t8tQ9nu9heZPy6y7ipzj-25">
          <mxGeometry relative="1" as="geometry" />
        </mxCell>
        <mxCell id="t8tQ9nu9heZPy6y7ipzj-32" style="edgeStyle=orthogonalEdgeStyle;rounded=0;orthogonalLoop=1;jettySize=auto;html=1;entryX=1;entryY=0.5;entryDx=0;entryDy=0;" edge="1" parent="1" source="t8tQ9nu9heZPy6y7ipzj-4" target="t8tQ9nu9heZPy6y7ipzj-18">
          <mxGeometry relative="1" as="geometry" />
        </mxCell>
        <mxCell id="t8tQ9nu9heZPy6y7ipzj-4" value="Projektleiter" style="shape=umlActor;verticalLabelPosition=bottom;verticalAlign=top;html=1;outlineConnect=0;" vertex="1" parent="1">
          <mxGeometry x="760" y="450" width="30" height="60" as="geometry" />
        </mxCell>
        <mxCell id="t8tQ9nu9heZPy6y7ipzj-5" value="System verwalten" style="ellipse;whiteSpace=wrap;html=1;" vertex="1" parent="1">
          <mxGeometry x="580" y="260" width="80" height="40" as="geometry" />
        </mxCell>
        <mxCell id="t8tQ9nu9heZPy6y7ipzj-7" value="Systemwartung" style="ellipse;whiteSpace=wrap;html=1;" vertex="1" parent="1">
          <mxGeometry x="570" y="200" width="90" height="40" as="geometry" />
        </mxCell>
        <mxCell id="t8tQ9nu9heZPy6y7ipzj-14" value="Projekt Fortschritt Ã¼berwachen" style="ellipse;whiteSpace=wrap;html=1;" vertex="1" parent="1">
          <mxGeometry x="600" y="360" width="90" height="50" as="geometry" />
        </mxCell>
        <mxCell id="t8tQ9nu9heZPy6y7ipzj-16" value="Meilensteine festlegen" style="ellipse;whiteSpace=wrap;html=1;" vertex="1" parent="1">
          <mxGeometry x="590" y="510" width="80" height="40" as="geometry" />
        </mxCell>
        <mxCell id="t8tQ9nu9heZPy6y7ipzj-55" value="&lt;&lt;include&gt;&gt;" style="edgeStyle=orthogonalEdgeStyle;rounded=0;orthogonalLoop=1;jettySize=auto;exitX=0;exitY=0.5;exitDx=0;exitDy=0;entryX=1;entryY=0.5;entryDx=0;entryDy=0;dashed=1;fontSize=8;" edge="1" parent="1" source="t8tQ9nu9heZPy6y7ipzj-18" target="t8tQ9nu9heZPy6y7ipzj-50">
          <mxGeometry relative="1" as="geometry" />
        </mxCell>
        <mxCell id="t8tQ9nu9heZPy6y7ipzj-18" value="Aufgaben verwalten" style="ellipse;whiteSpace=wrap;html=1;" vertex="1" parent="1">
          <mxGeometry x="530" y="660" width="100" height="50" as="geometry" />
        </mxCell>
        <mxCell id="t8tQ9nu9heZPy6y7ipzj-29" style="edgeStyle=orthogonalEdgeStyle;rounded=0;orthogonalLoop=1;jettySize=auto;html=1;entryX=0.5;entryY=1;entryDx=0;entryDy=0;" edge="1" parent="1" source="t8tQ9nu9heZPy6y7ipzj-19" target="t8tQ9nu9heZPy6y7ipzj-25">
          <mxGeometry relative="1" as="geometry" />
        </mxCell>
        <mxCell id="t8tQ9nu9heZPy6y7ipzj-62" style="edgeStyle=orthogonalEdgeStyle;rounded=0;orthogonalLoop=1;jettySize=auto;html=1;exitX=0.5;exitY=0.5;exitDx=0;exitDy=0;exitPerimeter=0;entryX=1;entryY=0.5;entryDx=0;entryDy=0;" edge="1" parent="1" source="t8tQ9nu9heZPy6y7ipzj-19" target="t8tQ9nu9heZPy6y7ipzj-61">
          <mxGeometry relative="1" as="geometry" />
        </mxCell>
        <mxCell id="t8tQ9nu9heZPy6y7ipzj-63" style="edgeStyle=orthogonalEdgeStyle;rounded=0;orthogonalLoop=1;jettySize=auto;html=1;exitX=0.5;exitY=0.5;exitDx=0;exitDy=0;exitPerimeter=0;" edge="1" parent="1" source="t8tQ9nu9heZPy6y7ipzj-19" target="t8tQ9nu9heZPy6y7ipzj-53">
          <mxGeometry relative="1" as="geometry" />
        </mxCell>
        <mxCell id="t8tQ9nu9heZPy6y7ipzj-19" value="Mitarbeiter" style="shape=umlActor;verticalLabelPosition=bottom;verticalAlign=top;html=1;outlineConnect=0;" vertex="1" parent="1">
          <mxGeometry x="760" y="610" width="30" height="60" as="geometry" />
        </mxCell>
        <mxCell id="t8tQ9nu9heZPy6y7ipzj-20" value="Anforderungen analysieren" style="ellipse;whiteSpace=wrap;html=1;" vertex="1" parent="1">
          <mxGeometry x="480" y="460" width="100" height="40" as="geometry" />
        </mxCell>
        <mxCell id="t8tQ9nu9heZPy6y7ipzj-38" value="&lt;&lt;include&gt;&gt;" style="edgeStyle=orthogonalEdgeStyle;rounded=0;orthogonalLoop=1;jettySize=auto;dashed=1;" edge="1" parent="1" source="t8tQ9nu9heZPy6y7ipzj-22" target="t8tQ9nu9heZPy6y7ipzj-37">
          <mxGeometry relative="1" as="geometry" />
        </mxCell>
        <mxCell id="t8tQ9nu9heZPy6y7ipzj-40" value="&lt;&lt;include&gt;&gt;" style="edgeStyle=orthogonalEdgeStyle;rounded=0;orthogonalLoop=1;jettySize=auto;dashed=1;spacing=-2;" edge="1" parent="1" source="t8tQ9nu9heZPy6y7ipzj-22" target="t8tQ9nu9heZPy6y7ipzj-39">
          <mxGeometry x="0.6405" y="-3" relative="1" as="geometry">
            <mxPoint x="3" y="-2" as="offset" />
          </mxGeometry>
        </mxCell>
        <mxCell id="t8tQ9nu9heZPy6y7ipzj-44" style="edgeStyle=orthogonalEdgeStyle;rounded=0;orthogonalLoop=1;jettySize=auto;html=1;exitX=0.5;exitY=0;exitDx=0;exitDy=0;entryX=0.5;entryY=1;entryDx=0;entryDy=0;dashed=1;" edge="1" parent="1" source="t8tQ9nu9heZPy6y7ipzj-22" target="t8tQ9nu9heZPy6y7ipzj-24">
          <mxGeometry relative="1" as="geometry" />
        </mxCell>
        <mxCell id="t8tQ9nu9heZPy6y7ipzj-22" value="Dienstleistung bestellen" style="ellipse;whiteSpace=wrap;html=1;" vertex="1" parent="1">
          <mxGeometry x="200" y="490" width="80" height="50" as="geometry" />
        </mxCell>
        <mxCell id="t8tQ9nu9heZPy6y7ipzj-47" value="&lt;&lt;include&gt;&gt;" style="edgeStyle=orthogonalEdgeStyle;rounded=0;orthogonalLoop=1;jettySize=auto;exitX=0.5;exitY=1;exitDx=0;exitDy=0;entryX=0.5;entryY=0;entryDx=0;entryDy=0;dashed=1;" edge="1" parent="1" source="t8tQ9nu9heZPy6y7ipzj-23" target="t8tQ9nu9heZPy6y7ipzj-46">
          <mxGeometry relative="1" as="geometry" />
        </mxCell>
        <mxCell id="t8tQ9nu9heZPy6y7ipzj-23" value="Kunden Login" style="ellipse;whiteSpace=wrap;html=1;" vertex="1" parent="1">
          <mxGeometry x="270" y="320" width="80" height="40" as="geometry" />
        </mxCell>
        <mxCell id="t8tQ9nu9heZPy6y7ipzj-42" value="" style="edgeStyle=orthogonalEdgeStyle;rounded=0;orthogonalLoop=1;jettySize=auto;html=1;endArrow=none;startFill=0;" edge="1" parent="1" source="t8tQ9nu9heZPy6y7ipzj-24" target="t8tQ9nu9heZPy6y7ipzj-41">
          <mxGeometry relative="1" as="geometry" />
        </mxCell>
        <mxCell id="t8tQ9nu9heZPy6y7ipzj-24" value="telefonische / online Beratung" style="ellipse;whiteSpace=wrap;html=1;" vertex="1" parent="1">
          <mxGeometry x="185" y="230" width="110" height="60" as="geometry" />
        </mxCell>
        <mxCell id="t8tQ9nu9heZPy6y7ipzj-48" value="&lt;&lt;include&gt;&gt;" style="edgeStyle=orthogonalEdgeStyle;rounded=0;orthogonalLoop=1;jettySize=auto;exitX=0;exitY=0.5;exitDx=0;exitDy=0;entryX=1;entryY=0.5;entryDx=0;entryDy=0;dashed=1;" edge="1" parent="1" source="t8tQ9nu9heZPy6y7ipzj-25" target="t8tQ9nu9heZPy6y7ipzj-46">
          <mxGeometry x="0.2" y="14" relative="1" as="geometry">
            <mxPoint x="10" y="-4" as="offset" />
          </mxGeometry>
        </mxCell>
        <mxCell id="t8tQ9nu9heZPy6y7ipzj-25" value="Mitarbeiter Login" style="ellipse;whiteSpace=wrap;html=1;" vertex="1" parent="1">
          <mxGeometry x="420" y="400" width="74" height="40" as="geometry" />
        </mxCell>
        <mxCell id="t8tQ9nu9heZPy6y7ipzj-33" style="edgeStyle=orthogonalEdgeStyle;rounded=0;orthogonalLoop=1;jettySize=auto;html=1;entryX=0.5;entryY=0;entryDx=0;entryDy=0;" edge="1" parent="1" source="t8tQ9nu9heZPy6y7ipzj-19" target="t8tQ9nu9heZPy6y7ipzj-18">
          <mxGeometry relative="1" as="geometry" />
        </mxCell>
        <mxCell id="t8tQ9nu9heZPy6y7ipzj-37" value="Dienstleistung bezahlen" style="ellipse;whiteSpace=wrap;html=1;" vertex="1" parent="1">
          <mxGeometry x="200" y="620" width="80" height="50" as="geometry" />
        </mxCell>
        <mxCell id="t8tQ9nu9heZPy6y7ipzj-39" value="Anforderungen stellen" style="ellipse;whiteSpace=wrap;html=1;" vertex="1" parent="1">
          <mxGeometry x="280" y="585" width="80" height="50" as="geometry" />
        </mxCell>
        <mxCell id="t8tQ9nu9heZPy6y7ipzj-41" value="&amp;lt;&amp;lt;actor&amp;gt;&amp;gt;&lt;div&gt;Experte / IT Support&lt;/div&gt;" style="whiteSpace=wrap;html=1;" vertex="1" parent="1">
          <mxGeometry x="180" y="90" width="120" height="60" as="geometry" />
        </mxCell>
        <mxCell id="t8tQ9nu9heZPy6y7ipzj-46" value="Authentifizierung" style="ellipse;whiteSpace=wrap;html=1;fillColor=#f5f5f5;fontColor=#333333;strokeColor=#666666;" vertex="1" parent="1">
          <mxGeometry x="280" y="410" width="100" height="40" as="geometry" />
        </mxCell>
        <mxCell id="t8tQ9nu9heZPy6y7ipzj-50" value="hinzufÃ¼gen" style="ellipse;whiteSpace=wrap;html=1;" vertex="1" parent="1">
          <mxGeometry x="400" y="650" width="80" height="40" as="geometry" />
        </mxCell>
        <mxCell id="t8tQ9nu9heZPy6y7ipzj-52" value="Status Ã¤ndern" style="ellipse;whiteSpace=wrap;html=1;" vertex="1" parent="1">
          <mxGeometry x="390" y="710" width="80" height="40" as="geometry" />
        </mxCell>
        <mxCell id="t8tQ9nu9heZPy6y7ipzj-53" value="Aufgaben bearbeiten" style="ellipse;whiteSpace=wrap;html=1;" vertex="1" parent="1">
          <mxGeometry x="630" y="720" width="80" height="40" as="geometry" />
        </mxCell>
        <mxCell id="t8tQ9nu9heZPy6y7ipzj-57" value="&lt;&lt;include&gt;&gt;" style="edgeStyle=orthogonalEdgeStyle;rounded=0;orthogonalLoop=1;jettySize=auto;exitX=0;exitY=1;exitDx=0;exitDy=0;entryX=1.012;entryY=0.624;entryDx=0;entryDy=0;entryPerimeter=0;dashed=1;" edge="1" parent="1" source="t8tQ9nu9heZPy6y7ipzj-18" target="t8tQ9nu9heZPy6y7ipzj-52">
          <mxGeometry relative="1" as="geometry" />
        </mxCell>
        <mxCell id="t8tQ9nu9heZPy6y7ipzj-59" value="Feedback geben" style="ellipse;whiteSpace=wrap;html=1;" vertex="1" parent="1">
          <mxGeometry x="290" y="460" width="80" height="50" as="geometry" />
        </mxCell>
        <mxCell id="t8tQ9nu9heZPy6y7ipzj-61" value="Feedback bearbeiten" style="ellipse;whiteSpace=wrap;html=1;" vertex="1" parent="1">
          <mxGeometry x="570" y="580" width="80" height="40" as="geometry" />
        </mxCell>
      </root>
    </mxGraphModel>
  </diagram>
</mxfile>
